# xmcd
#
# Track frame offsets:
# 150
# 14069
# 28616
# 40016
# 57502
# 66958
#
# Disc length: 1404 seconds
#
# Revision: 1
# Processed by: cddbd v1.5.2PL0 Copyright (c) Steve Scherf et al.
# Submitted via: CedeCatalogueitor 2.6.0.6 http://personales.ya.com/cdcatalogueitor
#
DISCID=4f057a06
DTITLE=Magma - Magma Ep
DYEAR=1900
DGENRE=
TTITLE0=Letter
TTITLE1=Trismo
TTITLE2=Autoexit
TTITLE3=Mantra
TTITLE4=War
TTITLE5=Wizar
EXTD=
EXTT0=
EXTT1=
EXTT2=
EXTT3=
EXTT4=
EXTT5=
PLAYORDER=
